<mxfile host="app.diagrams.net" modified="2023-08-04T01:53:39.526Z" agent="Mozilla/5.0 (Windows NT 10.0; Win64; x64) AppleWebKit/537.36 (KHTML, like Gecko) Chrome/114.0.0.0 Safari/537.36" etag="X1IM3sSUObeO_4fleT7d" version="21.6.6" type="github">
  <diagram name="หน้า-1" id="d8-UFD6SmvWyo62A5cIa">
    <mxGraphModel dx="794" dy="480" grid="1" gridSize="10" guides="1" tooltips="1" connect="1" arrows="1" fold="1" page="1" pageScale="1" pageWidth="827" pageHeight="1169" math="0" shadow="0">
      <root>
        <mxCell id="0" />
        <mxCell id="1" parent="0" />
        <mxCell id="7wkQh-Zvsg0QSBGbQNZC-4" value="Resilient patterns" style="rounded=1;whiteSpace=wrap;html=1;" parent="1" vertex="1">
          <mxGeometry x="130" y="350" width="120" height="60" as="geometry" />
        </mxCell>
        <mxCell id="7wkQh-Zvsg0QSBGbQNZC-21" style="edgeStyle=orthogonalEdgeStyle;rounded=0;orthogonalLoop=1;jettySize=auto;html=1;" parent="1" source="7wkQh-Zvsg0QSBGbQNZC-5" target="7wkQh-Zvsg0QSBGbQNZC-15" edge="1">
          <mxGeometry relative="1" as="geometry" />
        </mxCell>
        <mxCell id="7wkQh-Zvsg0QSBGbQNZC-5" value="Client-side load balancing" style="rounded=1;whiteSpace=wrap;html=1;" parent="1" vertex="1">
          <mxGeometry x="354" y="200" width="120" height="60" as="geometry" />
        </mxCell>
        <mxCell id="7wkQh-Zvsg0QSBGbQNZC-22" style="edgeStyle=orthogonalEdgeStyle;rounded=0;orthogonalLoop=1;jettySize=auto;html=1;" parent="1" source="7wkQh-Zvsg0QSBGbQNZC-6" target="7wkQh-Zvsg0QSBGbQNZC-16" edge="1">
          <mxGeometry relative="1" as="geometry" />
        </mxCell>
        <mxCell id="7wkQh-Zvsg0QSBGbQNZC-23" style="edgeStyle=orthogonalEdgeStyle;rounded=0;orthogonalLoop=1;jettySize=auto;html=1;" parent="1" source="7wkQh-Zvsg0QSBGbQNZC-6" target="7wkQh-Zvsg0QSBGbQNZC-17" edge="1">
          <mxGeometry relative="1" as="geometry">
            <Array as="points">
              <mxPoint x="550" y="320" />
              <mxPoint x="550" y="370" />
            </Array>
          </mxGeometry>
        </mxCell>
        <mxCell id="7wkQh-Zvsg0QSBGbQNZC-6" value="Service discovery" style="rounded=1;whiteSpace=wrap;html=1;" parent="1" vertex="1">
          <mxGeometry x="354" y="270" width="120" height="60" as="geometry" />
        </mxCell>
        <mxCell id="7wkQh-Zvsg0QSBGbQNZC-20" style="edgeStyle=orthogonalEdgeStyle;rounded=0;orthogonalLoop=1;jettySize=auto;html=1;" parent="1" source="7wkQh-Zvsg0QSBGbQNZC-7" target="7wkQh-Zvsg0QSBGbQNZC-14" edge="1">
          <mxGeometry relative="1" as="geometry">
            <Array as="points">
              <mxPoint x="570" y="390" />
              <mxPoint x="570" y="480" />
            </Array>
          </mxGeometry>
        </mxCell>
        <mxCell id="7wkQh-Zvsg0QSBGbQNZC-7" value="Circuit breaking" style="rounded=1;whiteSpace=wrap;html=1;" parent="1" vertex="1">
          <mxGeometry x="354" y="340" width="120" height="60" as="geometry" />
        </mxCell>
        <mxCell id="7wkQh-Zvsg0QSBGbQNZC-19" style="edgeStyle=orthogonalEdgeStyle;rounded=0;orthogonalLoop=1;jettySize=auto;html=1;" parent="1" source="7wkQh-Zvsg0QSBGbQNZC-8" target="7wkQh-Zvsg0QSBGbQNZC-14" edge="1">
          <mxGeometry relative="1" as="geometry" />
        </mxCell>
        <mxCell id="7wkQh-Zvsg0QSBGbQNZC-8" value="Bulkheading" style="rounded=1;whiteSpace=wrap;html=1;" parent="1" vertex="1">
          <mxGeometry x="354" y="410" width="120" height="60" as="geometry" />
        </mxCell>
        <mxCell id="7wkQh-Zvsg0QSBGbQNZC-9" value="Timeout" style="rounded=1;whiteSpace=wrap;html=1;" parent="1" vertex="1">
          <mxGeometry x="354" y="480" width="120" height="60" as="geometry" />
        </mxCell>
        <mxCell id="7wkQh-Zvsg0QSBGbQNZC-10" value="Retries" style="rounded=1;whiteSpace=wrap;html=1;" parent="1" vertex="1">
          <mxGeometry x="354" y="554.5" width="120" height="60" as="geometry" />
        </mxCell>
        <mxCell id="7wkQh-Zvsg0QSBGbQNZC-11" value="Retry budgets" style="rounded=1;whiteSpace=wrap;html=1;" parent="1" vertex="1">
          <mxGeometry x="354" y="630" width="120" height="60" as="geometry" />
        </mxCell>
        <mxCell id="7wkQh-Zvsg0QSBGbQNZC-12" value="Deadlines" style="rounded=1;whiteSpace=wrap;html=1;" parent="1" vertex="1">
          <mxGeometry x="354" y="700" width="120" height="60" as="geometry" />
        </mxCell>
        <mxCell id="7wkQh-Zvsg0QSBGbQNZC-14" value="Hystrix" style="rounded=0;whiteSpace=wrap;html=1;" parent="1" vertex="1">
          <mxGeometry x="610" y="450" width="120" height="60" as="geometry" />
        </mxCell>
        <mxCell id="7wkQh-Zvsg0QSBGbQNZC-15" value="Ribbon" style="rounded=0;whiteSpace=wrap;html=1;" parent="1" vertex="1">
          <mxGeometry x="600" y="200" width="120" height="60" as="geometry" />
        </mxCell>
        <mxCell id="7wkQh-Zvsg0QSBGbQNZC-16" value="Eureka" style="rounded=0;whiteSpace=wrap;html=1;" parent="1" vertex="1">
          <mxGeometry x="600" y="270" width="120" height="60" as="geometry" />
        </mxCell>
        <mxCell id="7wkQh-Zvsg0QSBGbQNZC-17" value="Zuul" style="rounded=0;whiteSpace=wrap;html=1;" parent="1" vertex="1">
          <mxGeometry x="610" y="360" width="120" height="60" as="geometry" />
        </mxCell>
        <mxCell id="dCDHa6atHF2z7J-mqOoW-4" style="edgeStyle=orthogonalEdgeStyle;rounded=0;orthogonalLoop=1;jettySize=auto;html=1;" parent="1" source="dCDHa6atHF2z7J-mqOoW-1" target="dCDHa6atHF2z7J-mqOoW-3" edge="1">
          <mxGeometry relative="1" as="geometry" />
        </mxCell>
        <mxCell id="dCDHa6atHF2z7J-mqOoW-1" value="Environment" style="rounded=1;whiteSpace=wrap;html=1;" parent="1" vertex="1">
          <mxGeometry x="334" y="1010" width="140" height="70" as="geometry" />
        </mxCell>
        <mxCell id="dCDHa6atHF2z7J-mqOoW-3" value="parameters" style="ellipse;whiteSpace=wrap;html=1;aspect=fixed;" parent="1" vertex="1">
          <mxGeometry x="369" y="890" width="70" height="70" as="geometry" />
        </mxCell>
        <mxCell id="dCDHa6atHF2z7J-mqOoW-6" style="edgeStyle=orthogonalEdgeStyle;rounded=0;orthogonalLoop=1;jettySize=auto;html=1;startArrow=block;startFill=1;" parent="1" source="dCDHa6atHF2z7J-mqOoW-5" target="dCDHa6atHF2z7J-mqOoW-1" edge="1">
          <mxGeometry relative="1" as="geometry" />
        </mxCell>
        <mxCell id="dCDHa6atHF2z7J-mqOoW-5" value="Clients" style="ellipse;whiteSpace=wrap;html=1;aspect=fixed;" parent="1" vertex="1">
          <mxGeometry x="184" y="1005" width="80" height="80" as="geometry" />
        </mxCell>
        <mxCell id="dCDHa6atHF2z7J-mqOoW-8" style="edgeStyle=orthogonalEdgeStyle;rounded=0;orthogonalLoop=1;jettySize=auto;html=1;" parent="1" source="dCDHa6atHF2z7J-mqOoW-7" target="dCDHa6atHF2z7J-mqOoW-3" edge="1">
          <mxGeometry relative="1" as="geometry" />
        </mxCell>
        <mxCell id="dCDHa6atHF2z7J-mqOoW-9" style="edgeStyle=orthogonalEdgeStyle;rounded=0;orthogonalLoop=1;jettySize=auto;html=1;startArrow=block;startFill=1;" parent="1" source="dCDHa6atHF2z7J-mqOoW-7" target="dCDHa6atHF2z7J-mqOoW-5" edge="1">
          <mxGeometry relative="1" as="geometry" />
        </mxCell>
        <mxCell id="dCDHa6atHF2z7J-mqOoW-7" value="Actor" style="shape=umlActor;verticalLabelPosition=bottom;verticalAlign=top;html=1;outlineConnect=0;" parent="1" vertex="1">
          <mxGeometry x="209" y="895" width="30" height="60" as="geometry" />
        </mxCell>
        <mxCell id="OcXs_SolH9g82rhRqtJv-5" value="tag: db" style="edgeStyle=orthogonalEdgeStyle;rounded=0;orthogonalLoop=1;jettySize=auto;html=1;" edge="1" parent="1" source="OcXs_SolH9g82rhRqtJv-3" target="OcXs_SolH9g82rhRqtJv-4">
          <mxGeometry relative="1" as="geometry" />
        </mxCell>
        <mxCell id="OcXs_SolH9g82rhRqtJv-7" style="edgeStyle=orthogonalEdgeStyle;rounded=0;orthogonalLoop=1;jettySize=auto;html=1;" edge="1" parent="1" source="OcXs_SolH9g82rhRqtJv-3" target="OcXs_SolH9g82rhRqtJv-6">
          <mxGeometry relative="1" as="geometry" />
        </mxCell>
        <mxCell id="OcXs_SolH9g82rhRqtJv-8" value="tag: api" style="edgeLabel;html=1;align=center;verticalAlign=middle;resizable=0;points=[];" vertex="1" connectable="0" parent="OcXs_SolH9g82rhRqtJv-7">
          <mxGeometry x="0.0706" relative="1" as="geometry">
            <mxPoint as="offset" />
          </mxGeometry>
        </mxCell>
        <mxCell id="OcXs_SolH9g82rhRqtJv-10" value="health check&lt;br&gt;- readyness&lt;br&gt;- liveness" style="edgeStyle=orthogonalEdgeStyle;rounded=0;orthogonalLoop=1;jettySize=auto;html=1;entryX=0;entryY=0.5;entryDx=0;entryDy=0;entryPerimeter=0;" edge="1" parent="1" source="OcXs_SolH9g82rhRqtJv-3" target="OcXs_SolH9g82rhRqtJv-9">
          <mxGeometry relative="1" as="geometry" />
        </mxCell>
        <mxCell id="OcXs_SolH9g82rhRqtJv-3" value="API" style="verticalAlign=top;align=left;spacingTop=8;spacingLeft=2;spacingRight=12;shape=cube;size=10;direction=south;fontStyle=4;html=1;whiteSpace=wrap;" vertex="1" parent="1">
          <mxGeometry x="1050" y="600" width="180" height="120" as="geometry" />
        </mxCell>
        <mxCell id="OcXs_SolH9g82rhRqtJv-4" value="Database" style="verticalAlign=top;align=left;spacingTop=8;spacingLeft=2;spacingRight=12;shape=cube;size=10;direction=south;fontStyle=4;html=1;whiteSpace=wrap;" vertex="1" parent="1">
          <mxGeometry x="1050" y="800" width="180" height="120" as="geometry" />
        </mxCell>
        <mxCell id="OcXs_SolH9g82rhRqtJv-6" value="Unmanage API" style="verticalAlign=top;align=left;spacingTop=8;spacingLeft=2;spacingRight=12;shape=cube;size=10;direction=south;fontStyle=4;html=1;whiteSpace=wrap;" vertex="1" parent="1">
          <mxGeometry x="790" y="600" width="180" height="120" as="geometry" />
        </mxCell>
        <mxCell id="OcXs_SolH9g82rhRqtJv-9" value="" style="shape=providedRequiredInterface;html=1;verticalLabelPosition=bottom;sketch=0;" vertex="1" parent="1">
          <mxGeometry x="1350" y="650" width="20" height="20" as="geometry" />
        </mxCell>
        <mxCell id="OcXs_SolH9g82rhRqtJv-12" style="edgeStyle=orthogonalEdgeStyle;rounded=0;orthogonalLoop=1;jettySize=auto;html=1;entryX=1;entryY=0.5;entryDx=0;entryDy=0;entryPerimeter=0;" edge="1" parent="1" source="OcXs_SolH9g82rhRqtJv-11" target="OcXs_SolH9g82rhRqtJv-9">
          <mxGeometry relative="1" as="geometry" />
        </mxCell>
        <mxCell id="OcXs_SolH9g82rhRqtJv-11" value="Watch" style="verticalAlign=top;align=left;spacingTop=8;spacingLeft=2;spacingRight=12;shape=cube;size=10;direction=south;fontStyle=4;html=1;whiteSpace=wrap;" vertex="1" parent="1">
          <mxGeometry x="1460" y="600" width="180" height="120" as="geometry" />
        </mxCell>
      </root>
    </mxGraphModel>
  </diagram>
</mxfile>
